<svg version="1.1" id="Capa_1" xmlns="http://www.w3.org/2000/svg" xmlns:xlink="http://www.w3.org/1999/xlink" x="0" y="0" viewBox="0 0 2839.4 1139.6" xml:space="preserve"><style>.st0{fill:#808587}</style><path class="st0" d="M740.5 1139.6c-61.7 0-119-39.8-138.2-101.7-11.5-36.9-7.9-76 10.1-110.2s48.2-59.3 85.1-70.8c36.9-11.5 76-7.9 110.2 10.1s59.3 48.2 70.8 85.1c23.7 76.1-19 157.3-95.2 181-14.2 4.4-28.6 6.5-42.8 6.5zm.1-266.5c-12.1 0-24.4 1.8-36.3 5.6-31.1 9.6-56.5 30.8-71.6 59.6-15.1 28.8-18.2 61.8-8.5 92.8 19.9 64.1 88.3 100 152.4 80.1 64.1-19.9 100.1-88.3 80.1-152.4-9.7-31.1-30.8-56.5-59.6-71.6-17.7-9.3-37.1-14.1-56.5-14.1zM804.2 289.3c-61.7 0-118.9-39.8-138.2-101.7-23.7-76.1 19-157.3 95.2-181 36.9-11.5 76-7.9 110.2 10.1s59.3 48.2 70.8 85.1c23.7 76.1-19 157.3-95.2 181-14.2 4.4-28.7 6.5-42.8 6.5zm0-266.5c-12.1 0-24.4 1.8-36.3 5.6-64.1 19.9-100.1 88.3-80.1 152.4 19.9 64.1 88.3 100.1 152.4 80.1 64.1-19.9 100.1-88.3 80.1-152.4-9.6-31.1-30.8-56.5-59.6-71.6-17.7-9.3-37-14.1-56.5-14.1zM144.8 819.5c-61.7 0-118.9-39.8-138.2-101.7-11.5-36.9-7.9-76 10.1-110.2s48.2-59.3 85.1-70.8c36.9-11.5 76-7.9 110.2 10.1s59.3 48.2 70.8 85.1c23.7 76.1-19 157.3-95.2 181-14.2 4.4-28.7 6.5-42.8 6.5zm0-266.4c-12.1 0-24.4 1.8-36.3 5.6-31.1 9.6-56.5 30.8-71.6 59.6s-18.2 61.7-8.5 92.8c19.9 64.1 88.3 100.1 152.4 80.1 64.1-19.9 100.1-88.3 80.1-152.4-9.6-31.1-30.8-56.5-59.6-71.6-17.7-9.4-37-14.1-56.5-14.1z"/><path d="M874.6 122.7c12.1 38.9-9.6 80.3-48.6 92.4-39 12.1-80.3-9.6-92.5-48.6-12.1-39 9.7-80.3 48.6-92.4 39-12.1 80.4 9.7 92.5 48.6" fill="#910160"/><path d="M810.9 973.1c12.1 38.9-9.7 80.3-48.6 92.4-38.9 12.1-80.3-9.6-92.4-48.6-12.1-39 9.7-80.3 48.6-92.4 38.9-12.1 80.3 9.6 92.4 48.6" fill="#2b498d"/><path d="M215.2 653c12.1 38.9-9.6 80.3-48.6 92.4-39 12.1-80.3-9.6-92.5-48.6-12.1-39 9.7-80.3 48.6-92.4 39-12.1 80.4 9.6 92.5 48.6" fill="#5996d1"/><path transform="rotate(-17.266 680.22 801.569)" class="st0" d="M668.9 732.4h22.8v138.5h-22.8z"/><path transform="rotate(-67.741 709.352 314.33)" class="st0" d="M647.8 302.9H771v22.8H647.8z"/><path transform="rotate(-15.16 345.65 615.382)" class="st0" d="M269.2 604h153v22.8h-153z"/><path class="st0" d="M607.4 754.1c-32.8 0-65.4-8-95.3-23.7-48.5-25.5-84.2-68.4-100.5-120.8-16.3-52.4-11.2-107.9 14.3-156.5 25.5-48.5 68.4-84.2 120.8-100.5 108.1-33.6 223.4 27 257 135.1 33.6 108.1-27 223.4-135.1 257-20.1 6.3-40.7 9.4-61.2 9.4zm.1-388c-17.9 0-36.1 2.7-54.1 8.2-46.5 14.5-84.7 46.2-107.3 89.3s-27.2 92.5-12.7 139.1c14.5 46.6 46.2 84.7 89.3 107.4 43.1 22.7 92.5 27.2 139.1 12.7 96.1-29.9 150-132.3 120.1-228.4-24.3-78-96.5-128.3-174.4-128.3z"/><path class="st0" d="M734.8 509.1c21.8 70.2-17.4 144.9-87.6 166.7-70.3 21.8-144.9-17.4-166.7-87.6-21.8-70.3 17.4-144.9 87.7-166.7 70.2-21.9 144.8 17.4 166.6 87.6"/><path d="M692.5 617.2c-70.2 21.8-151.8-19.6-173.6-89.9-8.4-26.9-.4-59.1 7.5-84.1-42.8 33-63 90.3-46 144.9 21.8 70.2 96.5 109.5 166.7 87.7 43.3-13.5 74.8-47 87.5-87.2-12.2 9.4-26.5 23.8-42.1 28.6" fill="#717677"/><g opacity=".91"><defs><path id="SVGID_1_" d="M502.4 442.6h221.9v136.9H502.4z"/></defs><clipPath id="SVGID_2_"><use xlink:href="#SVGID_1_" overflow="visible"/></clipPath><g clip-path="url(#SVGID_2_)"><defs><path id="SVGID_3_" d="M502.4 442.6h221.9v136.9H502.4z"/></defs><clipPath id="SVGID_4_"><use xlink:href="#SVGID_3_" overflow="visible"/></clipPath><path d="M570.4 484.9c60.1-18.7 136.8 39.5 149.2 94.6 4.9-19 7.5-29.5-.1-53.8C700.3 464 636 429 576 447.6c-49 15.2-74.3 46.8-73.6 96.9 10.9-34.4 31.6-48.3 68-59.6" clip-path="url(#SVGID_4_)" fill="#fff"/></g></g><path class="st0" d="M1183.4 901.8h-134v-659c5.2-.7 10.8-1.3 16.6-2 5.2-.7 10.2-1.3 15.1-2 4.9-.6 9.6-1 14.2-1 9.1 0 18.7 1 28.8 3 10.1 2 19.5 5.6 28.4 10.8 8.8 5.3 16.1 13 22 23.2 5.9 10.2 8.8 23.5 8.8 39.9v587.1zM1786.3 860.4c-3.9 3.9-10.5 8.8-19.7 14.8-9.2 5.9-21.2 11.8-36 17.7-14.8 5.9-32.8 11-54.2 15.3-21.3 4.2-45.8 6.4-73.4 6.4-53.2 0-99.2-8.6-137.9-25.6-38.8-17.1-70.8-40.9-96-71.4-25.3-30.5-43.8-66.6-55.7-108.4-11.8-41.7-17.7-87.5-17.7-137.4 0-49.9 6.4-96 19.2-138.4 12.8-42.3 32-79 57.6-109.8 25.6-30.9 57.6-55 96-72.4 38.4-17.4 83.6-26.1 135.5-26.1 25.6 0 48.7 2.3 69.5 6.9 20.7 4.6 38.8 10 54.2 16.3 15.4 6.3 28.2 12.8 38.4 19.7 10.2 6.9 17.9 12.6 23.2 17.2 5.9 5.3 11 11.5 15.3 18.7 4.2 7.2 6.4 15.1 6.4 23.6 0 13.2-4.9 26.3-14.8 39.4-9.9 13.1-20.7 25.3-32.5 36.4-7.9-7.9-16.8-15.9-26.6-24.1-9.9-8.2-20.8-15.4-33-21.7-12.2-6.2-26-11.5-41.4-15.8-15.4-4.3-32.7-6.4-51.7-6.4-33.5 0-61.5 6.8-84.2 20.2-22.7 13.5-40.9 31-54.7 52.7-13.8 21.7-23.7 46.5-29.6 74.4-5.9 27.9-8.9 56.3-8.9 85.2 0 30.9 3 60.4 8.9 88.7 5.9 28.2 16.1 53.2 30.5 74.8 14.4 21.7 33.3 39.1 56.6 52.2 23.3 13.1 52.3 19.7 87.2 19.7 18.4 0 35.3-2.3 50.7-6.9 15.4-4.6 29.1-10.2 40.9-16.8 11.8-6.5 22.2-13.4 31-20.7 8.9-7.2 16.3-13.4 22.2-18.7 3.9 4.6 8.5 10.2 13.8 16.7 5.2 6.6 10.2 13.5 14.8 20.7 4.6 7.3 8.5 14.5 11.8 21.7 3.3 7.2 4.9 13.8 4.9 19.7 0 8.6-1.7 15.7-4.9 21.7-3.3 6-8.5 12.6-15.7 19.8M2260.1 795.4c15.8 0 28.9 1.9 39.4 5.9 10.5 3.9 18.9 9.2 25.1 15.8 6.2 6.6 10.7 14.1 13.3 22.7 2.6 8.5 3.9 17.1 3.9 25.6 0 7.2-.2 13.3-.5 18.2-.3 4.9-.8 10.3-1.5 16.3h-426.5v-660h410.8c1.3 7.2 2.1 13.3 2.4 18.2.4 4.9.5 11 .5 18.2 0 23-5.9 40.2-17.7 51.7-11.8 11.5-33.8 17.2-66 17.2h-194.1v162.5H2258v105.4h-208.8v182.2h210.9zM2428.6 746.2c9.2 7.3 19.4 14.6 30.5 22.2 11.1 7.6 23.5 14.5 36.9 20.7 13.4 6.2 28 11.3 43.8 15.3 15.7 3.9 32.8 5.9 51.2 5.9 13.8 0 27.2-1.6 40.4-4.9 13.1-3.3 24.8-8.4 35-15.3s18.5-15.9 25.1-27.1c6.6-11.1 9.8-24.9 9.8-41.4 0-17-3.6-31.5-10.8-43.3-7.2-11.8-16.8-21.9-28.6-30.1-11.8-8.2-25.4-15.3-40.9-21.2-15.4-5.9-31.7-11.8-48.8-17.7-21-7.2-42.2-15.1-63.5-23.6-21.4-8.5-40.6-19.7-57.6-33.5-17.1-13.8-31-31.4-41.9-52.7-10.8-21.3-16.2-48.4-16.2-81.3 0-31.5 6.2-59.4 18.7-83.8 12.5-24.3 29.5-44.5 51.2-60.6 21.7-16.1 46.6-28.3 74.9-36.5 28.3-8.2 58.1-12.3 89.7-12.3 21.6 0 41.8 1.7 60.6 4.9 18.7 3.3 35.5 7.2 50.2 11.8 14.8 4.6 27.3 9.3 37.4 14.3 10.2 4.9 17.9 9.3 23.1 13.3 18.4 11.2 27.6 26 27.6 44.3 0 7.9-3.4 18.6-10.3 32-6.9 13.5-16.6 26.8-29.1 39.9-16.4-13.1-37.8-25.6-64-37.4-26.3-11.8-53.9-17.7-82.8-17.7-11.8 0-23.9 1.2-36.4 3.5s-23.8 6.2-34 11.8c-10.2 5.6-18.5 13.2-25.1 22.7-6.6 9.6-9.9 21.9-9.9 37 0 13.8 3.3 25.8 9.9 36 6.6 10.2 15.4 19 26.6 26.6 11.2 7.6 24.1 14.3 38.9 20.2 14.8 5.9 30 11.8 45.8 17.7 21 7.9 42.3 16.2 64 25.1 21.7 8.9 41.4 20.5 59.1 35 17.7 14.5 32.2 32.3 43.4 53.7 11.1 21.4 16.7 48.1 16.7 80.3 0 34.8-6.1 65.5-18.2 92.1-12.2 26.6-29.1 49.1-50.7 67.5-21.7 18.4-47.8 32.2-78.3 41.4-30.5 9.2-63.9 13.8-100 13.8-46.6 0-84.7-4.8-114.3-14.3-29.5-9.5-50.9-18.2-64-26.1-7.9-5.2-14.5-11.5-19.7-18.7-5.3-7.2-7.9-15.4-7.9-24.6 0-11.2 4.5-24.6 13.3-40.4 9-16 18.7-30.7 29.2-44.5"/></svg>